<svg id="Layer_1" data-name="Layer 1" xmlns="http://www.w3.org/2000/svg" viewBox="0 0 1029.85 313.74"><defs><style>.cls-1{fill:#66c61c;}</style></defs><path class="cls-1" d="M59.5,229.73a73,73,0,0,1-26.37-26.37,70.4,70.4,0,0,1-9.75-36.27V109.26L81.2,95v72.11a14.49,14.49,0,0,0,14.57,14.56h144.5a13.66,13.66,0,0,0,10.11-4.24,14.18,14.18,0,0,0,4.17-10.32V109.26l58-14.28v72.11a70.41,70.41,0,0,1-9.76,36.27,72.94,72.94,0,0,1-26.37,26.37,70.13,70.13,0,0,1-36.12,9.75H95.77A70.4,70.4,0,0,1,59.5,229.73ZM146,268.18h43.55v43.13H146Zm157.79-32.44a73.16,73.16,0,0,1-20.36-10.54l-9.19-58.11,38.32-20.64v20.64a14.11,14.11,0,0,0,4.17,10.32,13.64,13.64,0,0,0,10.11,4.24l10.32,29L326.8,239.48A72.18,72.18,0,0,1,303.75,235.74Z" transform="translate(-23.38 -8.03)"/><path class="cls-1" d="M316.47,210.64l10.33-29h14.7V22.73L399.33,8V95H486a70.09,70.09,0,0,1,36.12,9.76A73,73,0,0,1,548.49,131a71.86,71.86,0,0,1,0,72.32,72.94,72.94,0,0,1-26.37,26.37A70.08,70.08,0,0,1,486,239.48H326.8Zm179.78-33.23a14.14,14.14,0,0,0,4.17-10.32A13.77,13.77,0,0,0,496.25,157,13.94,13.94,0,0,0,486,152.81H399.33v28.84H486A13.81,13.81,0,0,0,496.25,177.41Zm20.29,4.24h56.84l10.18,29-10.18,28.84H478.79Z" transform="translate(-23.38 -8.03)"/><path class="cls-1" d="M572.53,239.48l-9.48-29,9.76-28.85h.57a15,15,0,0,0,14.7-14.7V94.7h72.11a70.25,70.25,0,0,1,36.26,9.76,73,73,0,0,1,26.37,26.3A69.88,69.88,0,0,1,732.58,167a70.67,70.67,0,0,1-9.76,36.34,72.75,72.75,0,0,1-26.37,26.44,70.34,70.34,0,0,1-36.26,9.75,68.82,68.82,0,0,1-23-3.89,74.2,74.2,0,0,1-20.29-10.81,75.43,75.43,0,0,1-20.5,10.89,70,70,0,0,1-23,3.81Zm97.91-62.21A14.24,14.24,0,0,0,674.75,167a13.64,13.64,0,0,0-4.24-10.11,14.18,14.18,0,0,0-10.32-4.17H645.91V167a14.47,14.47,0,0,0,4.17,10.32,13.44,13.44,0,0,0,10.11,4.38A13.9,13.9,0,0,0,670.44,177.27Z" transform="translate(-23.38 -8.03)"/><path d="M757.59,273.56l51.75-34.08h-.56q-13-.14-28.14-9.26a77.58,77.58,0,0,1-25.52-25.52,67.71,67.71,0,0,1-10.39-37,70.52,70.52,0,0,1,9.75-36.2A72.82,72.82,0,0,1,780.85,105,70.14,70.14,0,0,1,817,95.27h72.53V255.46l-99.82,66.31Zm74.09-91.91v-29H817a14.49,14.49,0,0,0-14.43,14.42,14.14,14.14,0,0,0,4.17,10.32A13.82,13.82,0,0,0,817,181.65Zm39.87,0h32.38l10.18,29-10.18,28.84H871.55Z" transform="translate(-23.38 -8.03)"/><path d="M902.8,239.48l-9.19-28.84,9.75-29h.57A13.64,13.64,0,0,0,914,177.41a14.14,14.14,0,0,0,4.17-10.32V37.16l58.11-14.71V167.09a70.32,70.32,0,0,1-9.76,36.27,73,73,0,0,1-26.36,26.37,70.4,70.4,0,0,1-36.27,9.75Z" transform="translate(-23.38 -8.03)"/><path d="M995.4,37.16l57.82-14.43V239.48H995.4Z" transform="translate(-23.38 -8.03)"/></svg>